<?xml version="1.0" encoding="UTF-8" standalone="no"?>
<svg
  xmlns="http://www.w3.org/2000/svg"
  width="100"
  height="100"
  viewBox="0 0 100 100"
  version="1.1"
>
  <path
    style="fill:#ffffff;fill-opacity:1;stroke:none"
    d="m 48.556907,58.245206 -4.23944,4.262821 v 17.13915 l 3.957085,3.978899 h 0.998063 1.779207 0.997834 l 3.957087,-3.978899 V 62.508027 L 51.76753,58.245206 h -0.947184 -1.316255 z"
  />
  <path
    style="fill:#ffffff;fill-opacity:1;stroke:none"
    d="m 48.341615,35.403004 -4.019293,4.041456 v 19.462732 l 4.509765,-4.534396 h 0.249518 2.049306 0.249518 l 4.509767,4.534396 V 39.44446 L 51.8709,35.403004 h -0.710387 -2.10851 z"
  />
  <path
    style="fill:#ffffff;fill-opacity:1;stroke:none"
    d="M 48.506959,15.383382 14.991941,49.083163 v 6.303651 h 5.53396 L 36.302233,39.523516 h 4.227642 l 8.05154,-8.096161 h 0.210429 2.464858 0.210431 l 8.051543,8.096161 h 4.227648 l 15.776331,15.863298 h 5.533959 V 49.083163 L 51.541589,15.383382 h -0.47359 -2.087465 z"
  />
</svg>
